# xmcd CD database file
#
# Track frame offsets:
#	150
#	24050
#	44325
#	63225
#
# Disc length: 1158 seconds
#
# Revision: 0
# Processed by: cddbd v1.5PL3 Copyright (c) Steve Scherf et al.
# Submitted via: CDex 1.50beta9
#
DISCID=25048404
DTITLE=キンモクセイ - 同じ空の下で
DYEAR=2003
DGENRE=JPop
TTITLE0=同じ空の下で
TTITLE1=Pocket Song
TTITLE2=ふれあいUSA
TTITLE3=同じ空の下で(ORIGINAL KARAOKE)
EXTD=YEAR: 2003/04/09
EXTT0=
EXTT1=
EXTT2=
EXTT3=
PLAYORDER=
